SplineFontDB: 3.0
FontName: DBMSC
FullName: DBMSC
FamilyName: DBMSC
Weight: Regular
Copyright: Copyright (c) 2019, Daniel Benjamin Miller\nCopyright (c) 2014-2015, URW(++) Design and Development
UComments: "2019-8-29: Created with FontForge (http://fontforge.org)"
Version: 001.000
ItalicAngle: 0
UnderlinePosition: -100
UnderlineWidth: 50
Ascent: 800
Descent: 200
InvalidEm: 0
LayerCount: 2
Layer: 0 0 "Back" 1
Layer: 1 0 "Fore" 0
XUID: [1021 921 275376880 2938473]
OS2Version: 0
OS2_WeightWidthSlopeOnly: 0
OS2_UseTypoMetrics: 1
CreationTime: 1567111698
ModificationTime: 1567112230
OS2TypoAscent: 0
OS2TypoAOffset: 1
OS2TypoDescent: 0
OS2TypoDOffset: 1
OS2TypoLinegap: 0
OS2WinAscent: 0
OS2WinAOffset: 1
OS2WinDescent: 0
OS2WinDOffset: 1
HheadAscent: 0
HheadAOffset: 1
HheadDescent: 0
HheadDOffset: 1
OS2Vendor: 'PfEd'
MarkAttachClasses: 1
DEI: 91125
Encoding: Custom
UnicodeInterp: none
NameList: AGL For New Fonts
DisplaySize: -128
AntiAlias: 1
FitToEm: 0
WinInfo: 0 14 13
BeginPrivate: 0
EndPrivate
BeginChars: 84 84

StartChar: zero.osf.ss11
Encoding: 0 -1 0
Width: 500
Flags: W
HStem: -8 28<196.475 303.728> 466 28<199.36 295.671>
VStem: 20 96<127.446 346.936> 378 96<132.598 344.782>
LayerCount: 2
Fore
SplineSet
248 494 m 0
 374.497070312 494 474 375.470703125 474 232 c 0
 474 97.3916015625 371.822265625 -8 248 -8 c 0
 123.4140625 -8 20 89.4228515625 20 232 c 0
 20 391 127.586914062 494 248 494 c 0
247 466 m 0
 171 466 116 377 116 239 c 0
 116 109 158.649414062 20 248 20 c 0
 324 20 378 78 378 242 c 0
 378 335 349.931237784 466 247 466 c 0
EndSplineSet
EndChar

StartChar: one.osf.ss11
Encoding: 1 -1 1
Width: 500
Flags: W
HStem: 0 16<111 172.494 320.467 382> 470 16<111 173.792 319.999 382>
VStem: 204 86<29.8291 457.977>
LayerCount: 2
Fore
SplineSet
290 95 m 2
 290 21 320 16 382 16 c 1
 382 0 l 1
 111 0 l 1
 111 16 l 1
 172 16 204 21 204 95 c 2
 204 401 l 2
 204 466 179 465 111 470 c 1
 111 486 l 1
 382 486 l 1
 382 470 l 1
 315 464 290 469 290 401 c 2
 290 95 l 2
EndSplineSet
EndChar

StartChar: two.osf.ss11
Encoding: 2 -1 2
Width: 500
Flags: W
HStem: 0 77.709<156 399> 432 62<148.295 273.304>
VStem: 310 86<273.275 397.246> 425 17<119.828 133.471>
LayerCount: 2
Fore
SplineSet
156 80 m 1
 156 77.708984375 l 0
 321 78 l 2
 401.99974803 78.1428617715 400 86 425 137 c 1
 442 131 l 1
 399 0 l 1
 39 0 l 1
 39 10 l 1
 114 68 156 104 200 147 c 0
 267.277033283 212.7480098 310 250 310 335 c 0
 310 395 267 432 196 432 c 0
 147 432 99 408 63 330 c 1
 44 337 l 1
 79 430 136 494 239 494 c 0
 333 494 396 441 396 356 c 0
 396 290 357 232 291 178 c 0
 259.68597182 152.379431489 224 119 156 80 c 1
EndSplineSet
EndChar

StartChar: three.osf.ss11
Encoding: 3 -1 3
Width: 500
Flags: W
HStem: -188 36<115 264.458> 154 16<155 182.804> 434 60<151.499 273.771>
VStem: 318 80<291.499 391.311> 358 74<-49.8642 80.7334>
LayerCount: 2
Fore
SplineSet
65 330 m 1xf0
 47 333 l 1
 77 446 160 494 242 494 c 0
 327 494 398 446 398 362 c 0xf0
 398 314 372 269 306 222 c 1
 387 198 432 134 432 50 c 0
 432 -111 301 -188 146 -188 c 0
 84 -188 45 -164 45 -132 c 0
 45 -106.862304688 62.974609375 -95 83 -95 c 0
 94 -95 111.798828125 -98.1220703125 126 -109 c 0
 173 -145 204 -152 231 -152 c 0
 295 -152 358 -94 358 -9 c 0xe8
 358 76.0234375 318 121 256 142 c 0
 231 150 193 154 155 154 c 1
 155 170 l 1
 188 176 215 192 236 204 c 0
 284 230 318 272 318 324 c 0
 318 392 268 434 202 434 c 0
 149 434 97 402 65 330 c 1xf0
EndSplineSet
EndChar

StartChar: four.osf.ss11
Encoding: 4 -1 4
Width: 500
Flags: W
HStem: 0 66<60 292 373 475> 485 20G<311.655 372>
VStem: 292 80<-177 0 66 402>
LayerCount: 2
Fore
SplineSet
326 505 m 5
 372 505 l 5
 372 66 l 5
 475 66 l 5
 475 0 l 5
 373 0 l 5
 373 -177 l 5
 293 -177 l 5
 293 0 l 5
 14 0 l 5
 14 70 l 5
 326 505 l 5
292 402 m 5
 290 402 l 4
 60 77 l 4
 60 66 l 5
 292 66 l 5
 292 402 l 5
EndSplineSet
EndChar

StartChar: five.osf.ss11
Encoding: 5 -1 5
Width: 500
Flags: W
HStem: -188 40<119.5 263.178> 410 76<181 398> 489.962 20G<387.928 442>
VStem: 358 72<-38.5363 109.752>
LayerCount: 2
Fore
SplineSet
179 486 m 1
 379 486 l 2
 414 486 433 509.961914062 433 509.961914062 c 0
 442 507 l 1
 398 410 l 1
 181 410 l 1
 139 321 l 1
 313.142578125 303.171875 430 215.276367188 430 70 c 0
 430 -107 289 -188 148 -188 c 0
 91 -188 34 -168 34 -122 c 0
 34 -103 54 -86 73 -86 c 0
 91 -86 107 -87 140 -109 c 0
 163 -123 188 -148 226 -148 c 0
 300 -148 358 -69 358 24 c 0
 358 154.176757812 236 222 63 242 c 1
 179 486 l 1
EndSplineSet
EndChar

StartChar: six.osf.ss11
Encoding: 6 -1 6
Width: 500
Flags: W
HStem: -8 28<215.608 309.78> 386 48<190.059 311.198> 668 16<404.669 444>
VStem: 38 90<142.081 352.472> 376 90<126.012 309.921>
LayerCount: 2
Fore
SplineSet
376 188 m 0
 376 316 326 386 243 386 c 0
 208.83217544 386 149.17773821 369.74132655 137 340 c 0
 128.960380707 320.365077766 128 271.851932289 128 235 c 0
 128 114 189 20 256 20 c 0
 328 20 376 73 376 188 c 0
444 684 m 1
 444 668 l 1
 281 652 179 532 150 389 c 1
 152 387.057617188 l 1
 152 387.057617188 201 434 279 434 c 0
 381 434 466 364 466 220 c 0
 466 117.470703125 385.919921875 -8 258 -8 c 0
 107.28515625 -8 38 123.111328125 38 279 c 0
 38 536.595703125 233 684 444 684 c 1
EndSplineSet
EndChar

StartChar: seven.osf.ss11
Encoding: 7 -1 7
Width: 500
Flags: W
HStem: 412 74<82.8841 371>
VStem: 173 63<-187 -165.823>
LayerCount: 2
Fore
SplineSet
81 486 m 1
 454 486 l 1
 236 -187 l 1
 173 -187 l 1
 371 412 l 1
 153 412 l 2
 108 412 80 403 39 333 c 5
 18 338 l 1
 81 486 l 1
EndSplineSet
EndChar

StartChar: eight.osf.ss11
Encoding: 8 -1 8
Width: 500
Flags: W
HStem: -8 28<195.162 309.441> 646 28<182.834 290.313>
VStem: 52 76<76.3047 231.944> 60 72<484.412 603.752> 348 72<468.227 601.776> 362 76<80.5494 199.197>
LayerCount: 2
Fore
SplineSet
271 272 m 2xe4
 211 315 l 1
 154 273 128 223 128 158 c 0
 128 74 181 20 250 20 c 0
 315 20 362 59 362 124 c 0
 362 185 324.64654065 233.553312534 271 272 c 2xe4
348 537 m 0xd8
 348 598 302 646 234 646 c 0
 181 646 132 604 132 549 c 0
 132 494 176 442 256 393 c 1
 313 432 348 484 348 537 c 0xd8
438 167 m 0xc4
 438 64 362 -8 242 -8 c 0
 129 -8 52 58 52 158 c 0xe4
 52 203 77 271 184 338 c 1
 161 368 60 406 60 527 c 0
 60 616 130 674 241 674 c 0
 340 674 420 623 420 545 c 0xd8
 420 470 377 430 284 373 c 1
 393 293 438 247 438 167 c 0xc4
EndSplineSet
EndChar

StartChar: nine.osf.ss11
Encoding: 9 -1 9
Width: 500
Flags: W
HStem: -198 16<56 85.1136> 60 44<180.063 304.572> 466 28<174.519 279.776>
VStem: 28 90<188.129 367.216> 364 90<136.396 352.141>
LayerCount: 2
Fore
SplineSet
364 240 m 0
 364 373 315 466 228 466 c 0
 198 466 170 457 153 435 c 0
 133 408 118 374 118 320 c 0
 118 201 158 104 238 104 c 0
 284.919022125 104 341.523318104 124.417001727 356 152 c 0
 363.64453125 166.565429688 364 206.419422217 364 240 c 0
56 -198 m 1
 56 -182 l 1
 208 -155 307 -53 360 116 c 1
 358 118 l 1
 358 118 312 60 195 60 c 0
 87 60 27.5347115435 152.006217867 28 261 c 4
 28.5507202972 390.006183687 108 494 230 494 c 4
 294 494 355 471 395 421 c 0
 435 371 454 299 454 215 c 0
 454 -33.9083106213 264 -194 56 -198 c 1
EndSplineSet
EndChar

StartChar: NameMe.148
Encoding: 10 -1 10
Width: 500
Flags: W
HStem: -8 24<152.484 253.401> 470 24<243.765 337.585>
VStem: 16 84<93.7469 276.898> 400 84<200.235 388.358>
LayerCount: 2
Fore
SplineSet
285 494 m 0
 391.497070312 494 484 417.470703125 484 296 c 4
 484 134.391601562 367.822265625 -8 202 -8 c 0
 92.4140625 -8 16 70.4228515625 16 198 c 0
 16 360 146.586914062 494 285 494 c 0
290 470 m 0
 166 470 100 255 100 143 c 0
 100 80 116.649414062 16 206 16 c 0
 321 16 400 197 400 334 c 0
 400 423 348.931640625 470 290 470 c 0
EndSplineSet
EndChar

StartChar: NameMe.149
Encoding: 11 -1 11
Width: 500
Flags: W
HStem: 0 16<56 119.654 261.765 331> 470 16<178 239.957 384.019 438>
LayerCount: 2
Fore
SplineSet
255 105 m 2
 249.171550087 84.2142027212 246 69.251953125 246 57 c 3
 246 18.240234375 269.323861109 16 331 16 c 1
 331 0 l 1
 56 0 l 1
 56 16 l 1
 96 17 149.076240907 14.6897960655 166 77 c 2
 244 356 l 2
 248.42766756 371.837426273 260 424.696617812 260 441 c 3
 260 462.305266532 223.14764467 469.827379068 178 470 c 5
 178 486 l 1
 438 486 l 1
 438 470 l 1
 375 469 352.644063491 456.265007622 332 382 c 2
 255 105 l 2
EndSplineSet
EndChar

StartChar: NameMe.150
Encoding: 12 -1 12
Width: 500
Flags: W
HStem: 0 71.709<122 363> 438 56<185.267 303.541>
VStem: 332 90<300.558 410.362>
LayerCount: 2
Fore
SplineSet
122 74 m 1
 122 71.708984375 l 0
 277 72 l 6
 352.000003312 72.1408140183 373 84 394 134 c 5
 412 134 l 1
 363 0 l 1
 19 0 l 1
 19 10 l 1
 192 159 l 2
 240.501726453 200.773163246 332 284 332 345 c 0
 332 405 299 438 237 438 c 0
 188 438 138 410 95 334 c 1
 78 346 l 1
 112 439 188 494 273 494 c 0
 367 494 422 429 422 366 c 0
 422 280 295.485688394 189.269014437 271 173 c 6
 122 74 l 1
EndSplineSet
EndChar

StartChar: NameMe.151
Encoding: 13 -1 13
Width: 500
Flags: W
HStem: -190 40<56 192.284> 184 14<104.139 145.38> 454 40<207.766 315.748>
VStem: 294 80<-31.6668 105.881> 348 86<307.59 424.096>
LayerCount: 2
Fore
SplineSet
142 385 m 1xe8
 128 398 l 1
 153 434 202 494 284 494 c 0
 369 494 434 453 434 369 c 0xe8
 434 272 301 232 272 219 c 1
 272 217 l 1
 341 198 374 138 374 54 c 0
 374 -67 244 -190 87 -190 c 0
 25 -190 -18 -164 -18 -132 c 0
 -18 -106.862304688 0.974609375 -90 25 -90 c 0
 40 -90 57.2590291945 -93.8655825712 72 -104 c 0
 120 -137 136 -150 163 -150 c 0
 227 -150 294 -71 294 0 c 0xf0
 294 126.048828125 233.8125 184 113 184 c 1
 112 184 104 185 104 190 c 7
 104 196 115 198 115 198 c 5
 210.95703125 216.173828125 348 259.39269789 348 359 c 0
 348 427 303 454 258 454 c 0
 208 454 180 434 142 385 c 1xe8
EndSplineSet
EndChar

StartChar: NameMe.152
Encoding: 14 -1 14
Width: 500
Flags: W
HStem: 0 62<36 243 337 417>
LayerCount: 2
Fore
SplineSet
419 494 m 1
 458 494 l 1
 337 62 l 1
 432 62 l 1
 417 0 l 1
 319 0 l 1
 272 -172 l 1
 194 -172 l 1
 243 0 l 1
 -16 0 l 1
 -6 62 l 1
 419 494 l 1
353 383 m 1
 351 385 l 0
 36 62 l 1
 260 62 l 1
 353 383 l 1
EndSplineSet
EndChar

StartChar: NameMe.153
Encoding: 15 -1 15
Width: 500
Flags: W
HStem: -190 40<55 189.302> 412 74<208 436>
VStem: 322 68<-11.5913 146.61>
LayerCount: 2
Fore
SplineSet
206 486 m 1
 462 486 l 25
 436 412 l 1
 208 412 l 1
 167 322 l 1
 293.142578125 309.171875 390 224.276367188 390 93 c 0
 390 -77 237 -190 80 -190 c 4
 30 -190 -14 -175 -14 -129 c 0
 -14 -110 4 -93 23 -93 c 0
 41 -93 50 -96 89 -127 c 0
 107.021944721 -141.325135548 120 -150 143 -150 c 0
 217 -150 322 -84 322 59 c 0
 322 184.176757812 231 234 96 250 c 1
 206 486 l 1
EndSplineSet
EndChar

StartChar: NameMe.154
Encoding: 16 -1 16
Width: 500
Flags: W
HStem: -8 24<163.222 248.746> 408 32<209.371 315.449> 667 17<486.065 521>
VStem: 28 74<95.8344 279.062> 372 84<172.652 359.068>
LayerCount: 2
Fore
SplineSet
372 293 m 0
 372 341 338 408 255 408 c 0
 151.78125 408 102 258.100585938 102 152 c 0
 102 80 140 16 207 16 c 0
 302 16 372 177 372 293 c 0
521 684 m 1
 521 667 l 1
 368 638 246 516 189 418 c 1
 191 416.057617188 l 1
 210 424 230 440 294 440 c 0
 383 440 456 400 456 256 c 0
 456 131.470703125 360.919921875 -8 206 -8 c 0
 102.28515625 -8 28 63.111328125 28 219 c 0
 28 336.595703125 140 642 521 684 c 1
EndSplineSet
EndChar

StartChar: NameMe.155
Encoding: 17 -1 17
Width: 500
Flags: W
HStem: 412 74<130 424>
LayerCount: 2
Fore
SplineSet
130 486 m 1
 520 486 l 5
 124 -190 l 1
 54 -190 l 1
 424 412 l 1
 202 412 l 2
 156 412 108 403 64 343 c 1
 48 346 l 1
 130 486 l 1
EndSplineSet
EndChar

StartChar: NameMe.156
Encoding: 18 -1 18
Width: 501
Flags: W
HStem: -8 24<158.226 273.132> 646 24<252.284 354.137>
VStem: 11 70<83.4032 235.092> 121 76<478.574 602.635> 353 76<94.7685 225.421> 407 70<462.998 602.057>
LayerCount: 2
Fore
SplineSet
227 344 m 1xf8
 157 311 81 251 81 158 c 0
 81 62 146 16 215 16 c 0
 306 16 353 82 353 147 c 0
 353 233.268554688 275.19140625 300.541015625 227 344 c 1xf8
407 537 m 0xf4
 407 598 371 646 305 646 c 0
 249 646 197 612 197 546 c 0
 197 491 244 438 296 396 c 1
 382 426 407 484 407 537 c 0xf4
429 175 m 0xf8
 429 75 338 -8 208 -8 c 0
 95 -8 11 65 11 165 c 0
 11 210 42 302 210 361 c 1
 185 392 121 441 121 527 c 0
 121 616 190 670 304 670 c 0
 403 670 477 616 477 533 c 0xf4
 477 458 423 415 313 380 c 1
 378 318 429 255 429 175 c 0xf8
EndSplineSet
EndChar

StartChar: NameMe.157
Encoding: 19 -1 19
Width: 500
Flags: W
HStem: -196 16<-12 2.42425> 50 44<165.532 277.922> 470 24<236.484 325.959>
VStem: 34 90<138.018 330.091> 388 74<212.388 388.29>
LayerCount: 2
Fore
SplineSet
388 340 m 0
 388 385 363 470 281 470 c 0
 200.071289062 470 124 364 124 228 c 0
 124 141 162 94 234 94 c 0
 269.140645517 94 315 111 335 141 c 1
 360 180 388 261.734315233 388 340 c 0
-12 -196 m 1
 -12 -180 l 1
 125 -145 265 -37 324 96 c 1
 320 102 l 1
 320 102 274 50 191 50 c 4
 98 50 34 126 34 231 c 0
 34 372.006835938 156 494 284 494 c 0
 400.000976562 494 462 398.0207008 462 274 c 0
 462 92 298 -167 -12 -196 c 1
EndSplineSet
EndChar

StartChar: NameMe.158
Encoding: 20 -1 20
Width: 500
Flags: W
HStem: -12 28<162.791 231.826> 474 28<264.833 335.28>
VStem: 20 118<87.1476 239.819> 354 118<266.466 417.5>
LayerCount: 2
Fore
SplineSet
285 502 m 0
 396.497070312 502 472 417.470703125 472 296 c 0
 472 134.391601562 350.822265625 -12 203 -12 c 0
 107.4140625 -12 20 58.4228515625 20 186 c 0
 20 353 146.586914062 502 285 502 c 0
297 474 m 0
 206 474 138 206 138 94 c 0
 138 75 141.649414062 16 203 16 c 0
 300 16 354 351 354 407 c 0
 354 428 349.931640625 474 297 474 c 0
EndSplineSet
EndChar

StartChar: NameMe.159
Encoding: 21 -1 21
Width: 500
Flags: W
HStem: 0 24<22 89.3756 287.268 363> 462 24<141 214.611 406.654 468>
LayerCount: 2
Fore
SplineSet
278 118 m 2
 272.391539458 98.5977581254 271 78.251953125 271 66 c 3
 271 32.240234375 301.32421875 24 363 24 c 1
 363 0 l 1
 22 0 l 1
 22 24 l 1
 62 25 117.302236422 26.0440894569 139 101 c 2
 216 367 l 2
 220.427734375 382.837890625 225 412.696289062 225 429 c 3
 225 460.305664062 186.147460938 461.827148438 141 462 c 1
 141 486 l 1
 468 486 l 1
 468 462 l 1
 405 461 371.149214217 440.245930265 352 374 c 2
 278 118 l 2
EndSplineSet
EndChar

StartChar: NameMe.160
Encoding: 22 -1 22
Width: 500
Flags: W
HStem: 0 110<164 355> 418 80<188.084 326>
VStem: 304 126<308.336 392.212>
LayerCount: 2
Fore
SplineSet
164 111 m 1
 164 110 l 0
 285 110 l 2
 353 110 374 125 398 176 c 1
 424 176 l 1
 355 0 l 1
 0 0 l 1
 0 24 l 1
 180 168 l 2
 192.815120046 178.252096037 304 269 304 338 c 0
 304 383 268 418 223 418 c 0
 174 418 132 398 102 345 c 1
 79 354 l 1
 130 453 194 498 279 498 c 0
 373 498 430 440 430 374 c 0
 430 272 271.396126421 176.425226441 251 164 c 2
 164 111 l 1
EndSplineSet
EndChar

StartChar: NameMe.161
Encoding: 23 -1 23
Width: 500
Flags: W
HStem: -194 40<50.5 206.936> 166 24<113 172.224> 432 66<191.029 321.5>
VStem: 266 126<-25.6407 104.415> 302 130<290.422 403.712>
LayerCount: 2
Fore
SplineSet
103 357 m 1xe8
 82 370 l 1
 129 445 195 498 277 498 c 0
 366 498 432 449 432 368 c 4xe8
 432 269.21484375 351 231 313 216 c 1
 354 187 392 149 392 65 c 0
 392 -62 268 -194 94 -194 c 0
 7 -194 -29 -148 -29 -109 c 0
 -29 -72.8623046875 0.974609375 -58 25 -58 c 0
 66 -58 84.2733575538 -89.383902991 93 -105 c 0
 112 -139 131 -154 158 -154 c 0
 222 -154 266 -66 266 7 c 0xf0
 266 92.048828125 238.8125 158 113 166 c 0
 113 190 l 1
 203 200 302 242.392578125 302 342 c 0
 302 399 263 432 220 432 c 0
 170 432 126 399 103 357 c 1xe8
EndSplineSet
EndChar

StartChar: NameMe.162
Encoding: 24 -1 24
Width: 505
Flags: W
HStem: 0 94<50 224 377 421>
LayerCount: 2
Fore
SplineSet
429 513 m 1
 491 513 l 1
 377 94 l 1
 446 94 l 1
 421 0 l 1
 350 0 l 1
 305 -168 l 1
 176 -168 l 1
 224 0 l 1
 -20 0 l 1
 4 96 l 1
 429 513 l 1
324 358 m 1
 322 360 l 0
 50 94 l 1
 249 94 l 5
 324 358 l 1
EndSplineSet
EndChar

StartChar: NameMe.163
Encoding: 25 -1 25
Width: 500
Flags: W
HStem: -194 40<68 214.468> 380 106<194 443>
VStem: 294 106<-28.8123 94.5292>
LayerCount: 2
Fore
SplineSet
194 486 m 1
 477 486 l 25
 443 380 l 1
 185 380 l 1
 150 302 l 1
 276.142578125 289.171875 400 218.276367188 400 73 c 0
 400 -93 252 -194 106 -194 c 0
 30 -194 -22 -163 -22 -117 c 0
 -22 -98 -12 -58 34 -58 c 0
 52 -58 76.7406050673 -65.4858441711 101 -109 c 0
 119.021484375 -141.325195312 142 -154 165 -154 c 0
 230 -154 294 -80 294 9 c 0
 294 134.176757812 198 176 63 192 c 1
 194 486 l 1
EndSplineSet
EndChar

StartChar: NameMe.164
Encoding: 26 -1 26
Width: 500
Flags: W
HStem: -12 28<167.399 234.435> 384 40<241.358 311.167> 656 24<486.281 516>
VStem: 32 112<78.5543 222.705> 330 122<190.278 347.119>
LayerCount: 2
Fore
SplineSet
330 309 m 0
 330 354 301 384 275 384 c 0
 249.988393034 384 226.889439315 382.121109633 218 364 c 0
 178.479492188 283.4375 144 169.390662553 144 85 c 0
 144 37 175 16 204 16 c 0
 237.850636593 16 269.649222588 63.7925557554 294.779296875 142 c 0
 306.335289741 177.963469802 330 272.432675659 330 309 c 0
516 680 m 1
 516 656 l 1
 378 618 286 502 241 412 c 1
 247.393554688 413.733398438 278.768554688 424 304 424 c 0
 352 424 452 394 452 250 c 0
 452 125.470703125 350.919921875 -12 215 -12 c 0
 111.28515625 -12 32 40.111328125 32 196 c 4
 32 393.595703125 194 640 516 680 c 1
EndSplineSet
EndChar

StartChar: NameMe.165
Encoding: 27 -1 27
Width: 500
Flags: W
HStem: 376 110<135 375>
LayerCount: 2
Fore
SplineSet
135 486 m 1
 508 486 l 0
 508 470 l 1
 133 -182 l 1
 44 -182 l 1
 375 376 l 1
 202 376 l 2
 156 376 104 362 74 302 c 1
 49 302 l 1
 135 486 l 1
EndSplineSet
EndChar

StartChar: NameMe.166
Encoding: 28 -1 28
Width: 501
Flags: W
HStem: -12 32<163.848 274.911> 650 32<274.39 366.417>
VStem: 24 96<70.8889 229.408> 130 110<479.535 586.547> 326 110<93.1622 228.95> 400 96<469.686 609.278>
LayerCount: 2
Fore
SplineSet
229 320 m 1xf8
 160 280 120 223 120 130 c 0
 120 85 146 20 215 20 c 0
 295 20 326 80 326 145 c 0
 326 231.268554688 269.19140625 275.541015625 229 320 c 1xf8
400 540 m 0xf4
 400 604 375 650 320 650 c 0
 279 650 240 620 240 554 c 0
 240 496 270 457 331 404 c 1
 375 444 400 487 400 540 c 0xf4
436 193 m 0xf8
 436 56 343 -12 208 -12 c 0
 110 -12 24 49 24 149 c 0
 24 290 193 340 211 341 c 1
 185 366 130 417 130 503 c 0
 130 596 202 682 316 682 c 0
 419 682 496 622 496 540 c 4xf4
 496 469 447 425 350 382 c 5
 408 324 436 273 436 193 c 0xf8
EndSplineSet
EndChar

StartChar: NameMe.167
Encoding: 29 -1 29
Width: 500
Flags: W
HStem: -190 24<-24 5.9514> 66 40<178.606 250.047> 474 28<209.764 334.144>
VStem: 40 122<141.977 291.959> 348 112<266.699 406.951>
LayerCount: 2
Fore
SplineSet
348 399 m 0
 348 444 339 474 304 474 c 4
 221.071289062 474 162 235 162 181 c 4
 162 129 188 106 221 106 c 0
 255 106 268 115 272 123 c 1
 293 160 348 294 348 399 c 0
-24 -190 m 1
 -24 -166 l 1
 108 -126 185 -42 251 78 c 1
 230 73 212 66 187 66 c 0
 160 66 40 81 40 241 c 0
 40 382.006835938 149 502 275 502 c 0
 399.000976562 502 460 419.020507812 460 295 c 0
 460 108 311 -148 -24 -190 c 1
EndSplineSet
EndChar

StartChar: NameMe.168
Encoding: 30 -1 30
Width: 500
Flags: W
HStem: -12 32<206.002 282.614> 474 32<206.931 282.909>
VStem: 20 150<133.156 358.537> 320 150<132.558 355.913>
LayerCount: 2
Fore
SplineSet
242 506 m 3
 389.497070312 506 470 379.470703125 470 232 c 7
 470 101.391601562 367.822265625 -12 240 -12 c 3
 116.4140625 -12 20 107.422851562 20 236 c 3
 20 371 88.5597819263 506 242 506 c 3
245 474 m 3
 180.992187977 474 170 391.193347402 170 247 c 3
 170 122 175.649414062 20 245 20 c 3
 302 20 320 83 320 247 c 3
 320 387 309.931640625 474 245 474 c 3
EndSplineSet
EndChar

StartChar: NameMe.169
Encoding: 31 -1 31
Width: 500
Flags: W
HStem: 0 24<70 139.528 350.472 420> 470 24<70 141.91 348.09 420>
VStem: 170 150<42.2988 454.829>
LayerCount: 2
Fore
SplineSet
320 104 m 2
 320 33 359 25 420 24 c 1
 420 0 l 1
 70 0 l 1
 70 24 l 1
 131 25 170 33 170 104 c 2
 170 397 l 2
 170 462 137 467 70 470 c 1
 70 494 l 1
 420 494 l 1
 420 470 l 5
 353 467 320 462 320 397 c 2
 320 104 l 2
EndSplineSet
EndChar

StartChar: NameMe.170
Encoding: 32 -1 32
Width: 500
Flags: W
HStem: 0 119.709<177 408.969> 412 94<167.912 311>
VStem: 280 142<311.717 385.355> 431 20<160.009 188>
LayerCount: 2
Fore
SplineSet
177 122 m 1
 177 119.708984375 l 0
 347 120 l 6
 400.000050309 120.090728487 419 143 431 188 c 1
 451 188 l 1
 417 0 l 1
 32 0 l 1
 32 24 l 1
 32 24 130 114 200 185 c 0
 263.050014237 248.950728727 280 295 280 324 c 0
 280 377 249 412 186 412 c 0
 137 412 101 396 65 326 c 1
 39 326 l 1
 65 412 138 506 263 506 c 0
 359 506 422 448 422 374 c 0
 422 285 274 192 177 122 c 1
EndSplineSet
EndChar

StartChar: NameMe.171
Encoding: 33 -1 33
Width: 500
Flags: W
HStem: -190 50<109 284.003> 426 80<163.776 310.5>
VStem: 280 150<305.242 391.151> 352 114<-24.5412 113>
LayerCount: 2
Fore
SplineSet
54 345 m 1xe0
 35 359 l 1
 99 472 186 506 268 506 c 0
 353 506 430 458 430 366 c 0xe0
 430 335 412 290 347 248 c 1
 417 218 466 155 466 71 c 0
 466 -85 319 -190 164 -190 c 0
 54 -190 16 -140 16 -108 c 0
 16 -47.966796875 59.974609375 -40 80 -40 c 0
 124 -40 158.763495037 -77.9668136696 172 -90 c 0
 205 -120 226 -140 253 -140 c 0
 314 -140 352 -90 352 -19 c 0xd0
 352 44 306.465938545 101.689374304 252 138 c 0
 237 148 186 174 153 176 c 1
 153 196 l 1
 260 223 280 284 280 326 c 0
 280 386 242 426 176 426 c 0
 123 426 88 388 54 345 c 1xe0
EndSplineSet
EndChar

StartChar: four.taboldstyle
Encoding: 34 63047 34
Width: 500
Flags: W
HStem: 0 110<66 270 410 476>
VStem: 270 140<-168 0 110 384>
LayerCount: 2
Fore
SplineSet
330 519 m 1
 410 519 l 1
 410 110 l 1
 476 110 l 1
 476 0 l 1
 410 0 l 1
 410 -168 l 1
 270 -168 l 1
 270 0 l 1
 20 0 l 1
 20 116 l 1
 330 519 l 1
270 384 m 5
 267 384 l 0
 66 116 l 0
 66 110 l 1
 270 110 l 1
 270 384 l 5
EndSplineSet
EndChar

StartChar: NameMe.173
Encoding: 35 -1 35
Width: 500
Flags: W
HStem: -190 60<135.5 291.817> 144 136<120 199.058> 368 126<146 422>
VStem: 368 80<-51.8699 125.638>
LayerCount: 2
Fore
SplineSet
462 494 m 1
 422 368 l 1
 146 368 l 1
 120 280 l 5
 317.142578125 284.171875 448 198.276367188 448 53 c 0
 448 -119 305 -190 164 -190 c 0
 107 -190 16 -176 16 -100 c 0
 16 -81 33 -42 81 -42 c 0
 105 -42 131.386477274 -58.0503615713 163 -82 c 0
 196 -107 235 -130 273 -130 c 0
 342 -130 368 -66 368 -29 c 0
 368 78 197 149 46 144 c 1
 144 494 l 1
 462 494 l 1
EndSplineSet
EndChar

StartChar: exclam.sc
Encoding: 36 -1 36
Width: 270
Flags: W
HStem: -13 107<118.5 147.5 118.5 148>
VStem: 80 106<26.5 55 25.5 56>
LayerCount: 2
Fore
SplineSet
125 147 m 1
 85 382 l 2
 81 404 80 412 80 425 c 0
 80 470 102 500 135 500 c 0
 169 500 190 472 190 428 c 0
 190 413 188 396 185 378 c 2
 142 147 l 1
 125 147 l 1
133 94 m 0
 162 94 186 70 186 40 c 0
 186 11 162 -13 134 -13 c 0
 103 -13 80 11 80 42 c 0
 80 70 104 94 133 94 c 0
EndSplineSet
EndChar

StartChar: dollar.sc
Encoding: 37 -1 37
Width: 389
Flags: W
HStem: -8 28.8468<136.696 174 206.887 247.531>
VStem: 44 74<355.371 450.357> 174 32.785<-40 -7.99999 21.3561 197.616 328.016 468.355 494 526> 280 74<51.5154 151.15>
LayerCount: 2
Fore
SplineSet
174 526 m 1
 205 526 l 1
 205.119215091 492.262129203 l 1
 219.605576702 490.427122721 233.871645136 486.954798435 252 481 c 0
 263.441791907 477.241602448 270 474 276 474 c 0
 288 474 293 481 302 494 c 1
 316 494 l 1
 340 346 l 1
 323 348 l 1
 298.109755508 419.905150754 263.021580631 462.916165419 205.200710897 469.198816198 c 1
 205.768934002 308.391677453 l 1
 296.312747985 254.325781092 354 206.549589993 354 120 c 0
 354 46 289 -8 207 -8 c 0
 206.962304157 -8 206.924612749 -7.99999111555 206.886925764 -7.99999111555 c 2
 207 -40 l 1
 174 -40 l 1
 174 -6.87103981045 l 1
 154.983704919 -5.35687448556 136.004702626 -2.00156754196 115 5 c 0
 106 8 98 10 92 10 c 0
 82 10 77 5 72 -6 c 1
 56 -8 l 1
 27 156 l 1
 43 158 l 1
 62.354815465 100.857211484 108.892134817 31.8220775181 174 21.3560730927 c 1
 174 217.274114392 l 1
 101.25415632 260.224755507 44 302.684962747 44 375 c 0
 44 461 101 494 174 494 c 1
 174 526 l 1
206.160368102 197.615827057 m 1
 206.784993799 20.8467548383 l 1
 253.873644431 26.0805961043 280 55.0498306887 280 93 c 0
 280 130.685374828 256.957477405 163.762245137 206.160368102 197.615827057 c 1
174 328.016234023 m 1
 174 468.354849076 l 1
 141.797048047 461.608734622 118 434.907169441 118 403 c 0
 118 385.302163313 119.644829282 364.409488533 174 328.016234023 c 1
EndSplineSet
EndChar

StartChar: ampersand.sc
Encoding: 38 -1 38
Width: 575
Flags: W
HStem: -11 48<180 192> -11 60<463 471> 471 27<259 290.5>
VStem: 40 77<107 134.5> 157 68<388.5 412> 326 45<388 428>
LayerCount: 2
Fore
SplineSet
526 317 m 1xbc
 526 299 l 1
 486 297 467 280 433 211 c 0
 412 170 401 151 372 114 c 1
 412 69 445 49 481 49 c 0
 509 49 531 69 537 100 c 1
 551 90 l 1
 538 26 498 -11 444 -11 c 0x7c
 403 -11 371 7 321 58 c 1
 270 10 221 -11 163 -11 c 0
 92 -11 40 37 40 102 c 0
 40 167 85 221 183 274 c 1
 165 312 157 344 157 378 c 0
 157 446 208 498 275 498 c 0
 329 498 371 461 371 413 c 0
 371 360 337 320 263 285 c 1
 275 257 316 191 353 138 c 1
 385 174 408 227 408 262 c 0
 408 284 396 297 375 299 c 1
 375 317 l 1
 526 317 l 1xbc
250 310 m 1
 303 337 326 367 326 409 c 0
 326 447 306 471 275 471 c 0
 243 471 225 447 225 405 c 0
 225 372 232 344 250 310 c 1
301 80 m 1x9c
 275 107 225 187 195 246 c 1
 146 222 117 180 117 133 c 0
 117 81 157 37 203 37 c 0
 236 37 274 54 301 80 c 1x9c
EndSplineSet
EndChar

StartChar: question.sc
Encoding: 39 -1 39
Width: 399
Flags: W
HStem: -13 107<182.5 211.5 182.5 212> 470 30<159 204>
VStem: 40 62<354.5 430.5> 144 106<26.5 55 25.5 56> 270 89<356.5 389>
LayerCount: 2
Fore
SplineSet
206 146 m 1
 188 146 l 1
 187 156 187 161 187 164 c 0
 187 195 197 220 221 252 c 0
 265 308 270 319 270 357 c 0
 270 421 230 470 178 470 c 0
 140 470 102 444 102 417 c 0
 102 407 102 407 120 368 c 0
 124 360 126 352 126 343 c 0
 126 323 109 305 88 305 c 0
 62 305 40 336 40 373 c 0
 40 444 111 500 204 500 c 0
 290 500 359 446 359 377 c 0
 359 336 337 305 277 262 c 0
 218 219 205 196 206 146 c 1
197 94 m 0
 226 94 250 70 250 40 c 0
 250 11 226 -13 198 -13 c 0
 167 -13 144 11 144 42 c 0
 144 70 168 94 197 94 c 0
EndSplineSet
EndChar

StartChar: a.sc
Encoding: 40 -1 40
Width: 556
Flags: W
HStem: 0 16<24 54.917 129.152 172 326 371.717 495.558 526> 150 28<166 317>
LayerCount: 2
Fore
SplineSet
255 494 m 1
 266 494 l 1
 461 67 l 2
 472.065285858 42.7698612233 489 16 526 16 c 1
 526 0 l 1
 326 0 l 1
 326 16 l 1
 360 16 376 19 376 35 c 0
 376 43 367 63 360 80 c 2
 330 150 l 1
 153 150 l 1
 127 82 l 2
 121.378113208 67.2966037736 120 48 120 42 c 0
 120 22 137 16 172 16 c 1
 172 0 l 1
 24 0 l 1
 24 16 l 1
 62 16 72.6551724138 38.1379310345 91 84 c 2
 255 494 l 1
237 372 m 1
 166 178 l 1
 317 178 l 1
 237 372 l 1
EndSplineSet
EndChar

StartChar: b.sc
Encoding: 41 -1 41
Width: 500
Flags: W
HStem: 0 27.9211<187.592 312.831> 0 16<24 77.3545> 240 28<184 291.375> 458 28<184.678 295.665> 470 16<24 75.6641>
VStem: 98 86<30.7986 240 268 456.826> 344 92<302.729 425.697> 362 96<65.4411 191.708>
LayerCount: 2
Fore
SplineSet
184 436 m 2x36
 184 268 l 1
 257 270 344 269 344 364 c 0
 344 428 302 458 216 458 c 0
 193 458 184 457 184 436 c 2x36
24 0 m 1x65
 24 16 l 1
 80 17 98 20 98 88 c 2
 98 385 l 2
 98 467 79 469 24 470 c 1
 24 486 l 1x6d
 233 486 l 2
 351.305664062 486 436 456.439453125 436 359 c 0x36
 436 281 338 258.177734375 338 258.177734375 c 1
 338 256 l 1
 391 246 458 203 458 128 c 0
 458 34.2646484375 347 0 256 0 c 2xb5
 24 0 l 1x65
184 240 m 1
 184 56 l 2
 184 30.027027027 207.867056245 27.9211102995 229.134917971 27.9211102995 c 0xa5
 233.251278305 27.9211102995 237.27027027 28 241 28 c 3
 314 28 362 58 362 120 c 0
 362 192 315 240 222 240 c 2
 184 240 l 1
EndSplineSet
EndChar

StartChar: c.sc
Encoding: 42 -1 42
Width: 500
Flags: W
HStem: -8 28<297.5 358> 466 28<301 339.5 243 353.5>
VStem: 18 98<212.5 274.5 212.5 310.5>
LayerCount: 2
Fore
SplineSet
448 486 m 1
 466 336 l 1
 450 336 l 1
 424 413 363 466 281 466 c 0
 167.384765625 466 116 356 116 238 c 0
 116 125 164 20 269 20 c 0
 346 20 406 56 461 134 c 1
 477 124 l 1
 428 39 351 -8 257 -8 c 0
 95 -8 18 97 18 237 c 0
 18 395 121 494 267 494 c 0
 308 494 328 491 364 477 c 0
 372.336103204 473.758182087 393 464 403 464 c 0
 413 464 419 469 431 486 c 1
 448 486 l 1
EndSplineSet
EndChar

StartChar: d.sc
Encoding: 43 -1 43
Width: 556
Flags: W
HStem: 0 23.9741<182.311 311.195> 0 16<20 69.8572> 458 28<183.419 313.485> 470 16<20 63.5576>
VStem: 94 86<25.6353 455.741> 438 98<135.297 346.429>
LayerCount: 2
Fore
SplineSet
20 0 m 5x4c
 20 16 l 1
 77 18 94 29 94 71 c 2
 94 408 l 2
 94 446 76 469 20 470 c 1
 20 486 l 5x5c
 251 486 l 2
 402.373046875 486 536 412.536132812 536 243 c 0
 536 91.5634765625 437.700195312 -2.24967856192e-14 254 0 c 6xac
 20 0 l 5x4c
180 49 m 2
 180 26.2396182412 189.766431928 23.9740670231 240.026424069 23.9740670231 c 0
 392.792925166 23.9740670231 438 137.038746022 438 256 c 0
 438 384 362 458 230 458 c 4xac
 202 458 180 458 180 427 c 2
 180 49 l 2
EndSplineSet
EndChar

StartChar: e.sc
Encoding: 44 -1 44
Width: 500
Flags: W
HStem: 0 28<187.636 375.868> 0 16<22 71.9746> 244 28<184 330.24> 458 28<251 362.909> 470 16<22 68.9706>
VStem: 98 86<31.6032 244 272 452.851> 360 16<167 203.26 307.162 343>
LayerCount: 2
Fore
SplineSet
419 486 m 5x6e
 426 370 l 1
 406 369 l 1
 403 441 371 458 251 458 c 0
 251 458 214.743164062 457.884765625 197 453 c 0
 185.721679688 449.89453125 184 442 184 436 c 2
 184 272 l 1
 269 272 l 2
 318.934570312 272 357 280 360 343 c 1
 376 343 l 1
 376 167 l 1
 360 167 l 1
 357 229 321.28515625 244 271 244 c 2
 184 244 l 1
 184 68 l 2
 184 38 184 28 245 28 c 2
 270 28 l 6xb6
 413 28 421 68 448 132 c 1
 468 132 l 1
 436 0 l 1
 22 0 l 1
 22 16 l 1
 81 16 98 28 98 96 c 2
 98 391 l 2
 98 454 81 469 22 470 c 1
 22 486 l 1
 419 486 l 5x6e
EndSplineSet
EndChar

StartChar: f.sc
Encoding: 45 -1 45
Width: 444
Flags: W
HStem: 0 16<23 75.4709 210.42 266> 244 28<184 317.36> 458 28<185.444 376.112> 470 16<23 74.1375>
VStem: 98 86<26.4053 244 272 454.93> 348 16<167 202.878 307.672 343> 420 18<374 405.518>
LayerCount: 2
Fore
SplineSet
184 244 m 1xee
 184 85 l 2
 184 22 209 17 266 16 c 1
 266 0 l 1
 23 0 l 1
 23 16 l 1
 79 17 98 23 98 88 c 2
 98 393 l 2
 98 462 79 469 23 470 c 1
 23 486 l 1
 430 486 l 1xde
 438 374 l 1
 420 374 l 1
 407 438 390 458 267 458 c 0
 197.931250808 458 184 453.501870113 184 437 c 3
 184 364 184 272 184 272 c 1
 257 272 l 2
 322.390106645 272 346 293.356497845 348 343 c 1
 364 343 l 1
 364 167 l 1
 348 167 l 1
 346 233 300 244 257 244 c 2
 184 244 l 1xee
EndSplineSet
EndChar

StartChar: g.sc
Encoding: 46 -1 46
Width: 556
Flags: W
HStem: -8 28<232.378 375.664> 242 16<336 372.004 501.015 537> 466 28<226.722 356.46>
VStem: 20 98<134.477 348.237> 398 86<33.8548 232.421> 458 16<348 369.299>
LayerCount: 2
Fore
SplineSet
398 72 m 1xf8
 398 192 l 2
 398 243 342 241 336 242 c 1
 336 258 l 1
 537 258 l 1
 537 242 l 1
 517 240 484 240 484 200 c 2
 484 48 l 1xf8
 450 12 358 -8 283 -8 c 0
 145.955036713 -8 20 66.8491272344 20 252 c 0
 20 381 125 494 288 494 c 0
 352.031242374 494 392 469 420 466 c 0
 433.955794017 464.504736355 448 472 454 494 c 1
 467 494 l 1
 474 348 l 1
 458 348 l 1xf4
 447 396 380.88671875 466 288 466 c 0
 169 466 118 344 118 252 c 0
 118 122 181 20 305 20 c 0
 353 20 398 29 398 72 c 1xf8
EndSplineSet
EndChar

StartChar: h.sc
Encoding: 47 -1 47
Width: 611
Flags: W
HStem: 0 16<24 72.2016 212.566 260 340 388.202 528.566 576> 233 36<186 416> 470 16<24 71.3379 213.295 260 340 387.777 528.855 576>
VStem: 100 86<27 233 269 458.981> 416 86<27 233 269 458.981>
LayerCount: 2
Fore
SplineSet
186 269 m 1
 416 269 l 1
 416 403 l 2
 416 457 394 469 340 470 c 1
 340 486 l 1
 576 486 l 1
 576 470 l 1
 522 469 502 457 502 403 c 2
 502 83 l 2
 502 21 531 18 576 16 c 1
 576 0 l 1
 340 0 l 1
 340 16 l 1
 385 18 416 21 416 83 c 2
 416 233 l 1
 186 233 l 1
 186 83 l 2
 186 21 215 18 260 16 c 1
 260 0 l 1
 24 0 l 1
 24 16 l 1
 69 18 100 21 100 83 c 2
 100 403 l 2
 100 457 77 469 24 470 c 1
 24 486 l 1
 260 486 l 1
 260 470 l 1
 207 469 186 457 186 403 c 2
 186 269 l 1
EndSplineSet
EndChar

StartChar: i.sc
Encoding: 48 -1 48
Width: 278
Flags: W
HStem: 0 20
VStem: 90 86<107 380 107 380>
LayerCount: 2
Fore
SplineSet
252 0 m 1
 16 0 l 1
 16 16 l 1
 75 17 90 33 90 87 c 2
 90 399 l 2
 90 453 73 470 14 470 c 1
 14 486 l 1
 250 486 l 1
 250 470 l 1
 191 469 176 453 176 399 c 2
 176 87 l 2
 176 33 193 17 252 16 c 1
 252 0 l 1
EndSplineSet
EndChar

StartChar: j.sc
Encoding: 49 -1 49
Width: 333
Flags: W
HStem: -8 24<60.5 128.764> 470 16<64 110.971 256.693 300>
VStem: 8 71<17.5572 83.4553> 140 86<57.025 457.2>
LayerCount: 2
Fore
SplineSet
140 301 m 0
 140 402 l 2
 140 448 123 470 64 470 c 1
 64 486 l 1
 300 486 l 1
 300 470 l 1
 241 469 226 444 226 402 c 2
 226 302 l 0
 226 173 l 2
 226 115 222 95 208 64 c 0
 185 13 140 -8 85 -8 c 0
 36 -8 8 12 8 51 c 0
 8 73 26 87 47 87 c 0
 65 87 72.2390724576 77.1536040629 79 57 c 0
 86.0982399335 35.8409036681 88 16 107 16 c 0
 119 16 131 25 135 41 c 0
 138 51 140 56 140 108 c 2
 140 301 l 0
EndSplineSet
EndChar

StartChar: k.sc
Encoding: 50 -1 50
Width: 554
Flags: W
HStem: 0 16<22 74.5239 204.188 260 320 360.814 512.85 548> 470 16<22 68.5801 202.92 258 326 360.835 477.441 518>
VStem: 96 86<24.5672 235 264 460.066>
LayerCount: 2
Fore
SplineSet
187 240 m 1
 182 235 l 0
 182 74 l 2
 182 23 202 18 260 16 c 1
 260 0 l 1
 22 0 l 1
 22 16 l 1
 76 17 96 23 96 74 c 2
 96 402 l 2
 96 464 78 463 22 470 c 1
 22 486 l 1
 258 486 l 1
 258 470 l 1
 206 469 182 469 182 403 c 2
 182 264 l 1
 182 264 274.143745826 346.826656569 279 351 c 0
 343 406 367 429 367 450 c 0
 367 461 357 469 326 470 c 1
 326 486 l 1
 518 486 l 1
 518 470 l 1
 492 470 445 461 369 389 c 0
 332.026266968 353.972252917 258 285 258 285 c 1
 459 67 l 1
 501 28 515 17 548 16 c 1
 548 0 l 1
 320 0 l 1
 320 16 l 1
 343.498046875 16 365 17.96484375 365 34 c 0
 365 44 362.008400206 55.9589081709 342 77 c 2
 187 240 l 1
EndSplineSet
EndChar

StartChar: l.sc
Encoding: 51 -1 51
Width: 500
Flags: W
HStem: 0 28<192.743 378.324> 0 16<22 73.4985> 470 16<22 70.3585 214.287 264>
VStem: 98 85.9654<34.0091 457.25>
LayerCount: 2
Fore
SplineSet
22 0 m 1x70
 22 16 l 1x70
 78 17 98 28 98 76 c 2
 98 398 l 2
 98 463 74 467 22 470 c 1
 22 486 l 1
 264 486 l 1
 264 470 l 1
 212 467 184 462 184 398 c 2
 183.965386696 80.3981410442 l 2
 183.965386696 41.9843158464 187.255813953 28 258 28 c 2
 260 28 l 2xb0
 369 28 417 37 455 127 c 1
 474 127 l 1
 431 0 l 1
 22 0 l 1x70
EndSplineSet
EndChar

StartChar: m.sc
Encoding: 52 -1 52
Width: 667
Flags: W
HStem: 0 16<14 62.6562 157.344 206 412 460.024 599.344 648> 470 16<16 62.4799 593.913 646>
VStem: 90 40<27.8913 415.774> 486 86<26.5617 423.669>
LayerCount: 2
Fore
SplineSet
130 417 m 1
 130 80 l 2
 130 30 150 17 206 16 c 1
 206 0 l 1
 14 0 l 1
 14 16 l 1
 70 17 90 30 90 80 c 2
 90 408 l 2
 90 466 62 465 16 470 c 1
 16 486 l 1
 188 486 l 1
 332 138 l 1
 475 486 l 1
 646 486 l 1
 646 470 l 1
 590 469 572 458 572 422 c 2
 572 83 l 2
 572 30 592 17 648 16 c 1
 648 0 l 1
 412 0 l 1
 412 16 l 1
 468 17 486.002881527 30.043002649 486 83 c 2
 485.981445312 424 l 0
 484 424 l 1
 313 0 l 1
 300 0 l 1
 132.111328125 417 l 0
 130 417 l 1
EndSplineSet
EndChar

StartChar: n.sc
Encoding: 53 -1 53
Width: 611
Flags: W
HStem: 0 16<28 76.6562 171.344 220> 470 16<23 56.523 389 438.763 531.494 579>
VStem: 104 40<28.0002 380> 466 40<149 458.865>
LayerCount: 2
Fore
SplineSet
144 380 m 1
 144 84 l 2
 144 28 164 18 220 16 c 1
 220 0 l 1
 28 0 l 1
 28 16 l 1
 84 18 104 28.0009765625 104 84 c 2
 104 422 l 1
 69.825388507 458.997379719 64 464 23 470 c 1
 23 486 l 1
 159 486 l 1
 466 149 l 1
 466 394 l 2
 466 451 461 467 389 470 c 1
 389 486 l 1
 579 486 l 1
 579 470 l 1
 510 467 506 451 506 394 c 2
 506 0 l 1
 490 0 l 1
 144 380 l 1
EndSplineSet
EndChar

StartChar: o.sc
Encoding: 54 -1 54
Width: 556
Flags: W
HStem: -8 28<206.714 338.367> 466 28<205.594 338.395>
VStem: 22 98<141.348 347.591> 424 98<140.156 345.55>
LayerCount: 2
Fore
SplineSet
272 494 m 0
 402 494 522 398 522 240 c 0
 522 98 409 -8 272 -8 c 0
 130 -8 22 103 22 244 c 0
 22 386 130 494 272 494 c 0
272 466 m 0
 173 466 120 405 120 244 c 0
 120 88 170 20 272 20 c 0
 369 20 424 84 424 238 c 0
 424 394 375 466 272 466 c 0
EndSplineSet
EndChar

StartChar: p.sc
Encoding: 55 -1 55
Width: 444
Flags: W
HStem: 0 16<14 63.0476 202.613 259> 215 28<182.466 287.733> 458 28<178.099 288.548> 470 16<14 63.3947>
VStem: 90 86<26.7477 228 246.759 455.835> 338 98<279.674 420.956>
LayerCount: 2
Fore
SplineSet
176 228 m 1xec
 176 84 l 2
 176 22 201 18 259 16 c 1
 259 0 l 1
 14 0 l 1
 14 16 l 1
 61 18 90 20 90 91 c 2
 90 379 l 2
 90 450 82 470 14 470 c 1
 14 486 l 1xdc
 239 486 l 2
 280 486 309 483 336 473 c 0
 397 451 436 418.029405407 436 350 c 0
 436 256 366 215 251 215 c 0
 219 215 190 223 176 228 c 1xec
176 436 m 1
 176 284 l 1
 176 252 188 243 233 243 c 0
 298 243 338 286 338 347 c 0
 338 411 310 458 224 458 c 4xec
 207 458 176 457 176 436 c 1
EndSplineSet
EndChar

StartChar: q.sc
Encoding: 56 -1 56
Width: 556
Flags: W
HStem: -121 16<456.637 523> 466 28<205.594 338.395>
VStem: 22 98<137.94 346.609> 424 98<137.801 345.55>
LayerCount: 2
Fore
SplineSet
523 -121 m 1
 459 -124 l 2
 380.453836784 -127.681851401 342.085974445 -108.858797728 164.021484375 9.2138671875 c 0
 57.962587293 79.5403910863 21.9999986712 150.871012061 22 244 c 0
 22 386 130 494 272 494 c 0
 402 494 522 398 522 240 c 0
 522 135.999699205 461.386279017 51.3099643868 375.123452679 13.4310553444 c 0
 362.552299854 7.39483127688 349.170133789 2.2261799886 335 -2 c 1
 425 -105 471 -105 523 -105 c 1
 523 -121 l 1
424 238 m 0
 424 394 375 466 272 466 c 0
 173 466 120 405 120 244 c 0
 120 88 170 20 272 20 c 0
 369 20 424 84 424 238 c 0
EndSplineSet
EndChar

StartChar: r.sc
Encoding: 57 -1 57
Width: 500
Flags: W
HStem: 0 16<14 65.4985 198.493 253 472.462 493> 228 24<176 206> 462 24<183.071 273.072> 470 16<14 62.6562>
VStem: 90 86<25.4641 228 252 458.837> 320 96<288.786 428.572>
LayerCount: 2
Fore
SplineSet
176 228 m 1xec
 176 96 l 2
 176 22 194 16 253 16 c 1
 253 0 l 1
 14 0 l 1
 14 16 l 1
 70 17 90 22 90 95 c 2
 90 388 l 2
 90 457 70 470 14 470 c 1
 14 486 l 1xdc
 240 486 l 2
 344.568359375 486 416 443.943359375 416 359 c 0
 416 298 382 252 292 234 c 1
 398 101 l 2
 441.510388937 46.4067761452 465 21 493 16 c 1
 493 0 l 1
 375 0 l 1
 206 228 l 1
 176 228 l 1xec
176 428 m 1
 176 252 l 1
 184.031819051 252 200 252 200 252 c 2
 279.022460938 252 320 295 320 349 c 0
 320 415 294 462 226 462 c 0xec
 207 462 176 462 176 428 c 1
EndSplineSet
EndChar

StartChar: s.sc
Encoding: 58 -1 58
Width: 389
Flags: W
HStem: -8 28<138.546 246.733> 470 24<150.158 243.198>
VStem: 44 74<356.402 450.41> 280 74<51.8018 151.86>
LayerCount: 2
Fore
SplineSet
316 494 m 1
 340 346 l 1
 323 348 l 1
 296 426 257 470 190 470 c 0
 150 470 118 440 118 403 c 0
 118 383 120.100585938 358.919921875 198 313 c 0
 293 257 354 209 354 120 c 0
 354 46 289 -8 207 -8 c 0
 176 -8 148 -6 115 5 c 0
 106 8 98 10 92 10 c 0
 82 10 77 5 72 -6 c 1
 56 -8 l 1
 27 156 l 1
 43 158 l 1
 64 96 117 20 191 20 c 0
 248 20 280 51 280 93 c 0
 280 136 250 173 183 212 c 0
 106.032890888 256.80175008 44 299.727539062 44 375 c 0
 44 461 101 494 174 494 c 0
 202 494 221.552427064 491.001412761 252 481 c 0
 263.441791907 477.241602448 270 474 276 474 c 0
 288 474 293 481 302 494 c 1
 316 494 l 1
EndSplineSet
EndChar

StartChar: t.sc
Encoding: 59 -1 59
Width: 500
Flags: W
HStem: 0 16<130 178.001 315.921 366> 458 28<76.9884 204 290 417.012>
VStem: 26 17<368 403.558> 204 86<26.4821 458> 451 17<368 403.558>
LayerCount: 2
Fore
SplineSet
290 458 m 1
 290 104 l 2
 290 32 300 17 366 16 c 1
 366 0 l 1
 130 0 l 1
 130 16 l 1
 196 17 204 33 204 105 c 2
 204 458 l 1
 145 458 l 1
 68 458 55 435 43 368 c 1
 26 368 l 1
 35 486 l 1
 459 486 l 1
 468 368 l 1
 451 368 l 1
 439 435 426 458 349 458 c 2
 290 458 l 1
EndSplineSet
EndChar

StartChar: ae.sc
Encoding: 68 -1 60
Width: 726
Flags: W
HStem: 0 28<413.713 596.865> 0 16<18 45.5663 124.301 160 252 306.6> 184 28<192 326> 244 28<412 563.302> 454 32<309.219 326 412 591.952> 470 16<211 257.97>
VStem: 326 86<31.3275 184 212 244 272 453.814> 582 16<169 211.094 304.062 342> 626 16<368 398.047>
LayerCount: 2
Fore
SplineSet
674 133 m 1xb780
 691 133 l 1
 656 0 l 1
 252 0 l 1
 252 16 l 1
 311 16 326 23 326 80 c 2
 326 184 l 1
 178 184 l 1
 143 115 l 2
 121.342799866 72.3043768794 116 53 116 40 c 0
 116 18 144 16 160 16 c 1
 160 0 l 1
 18 0 l 1
 18 16 l 1x7380
 60 20 68.7310318447 42.1396385197 105 112 c 2
 254 399 l 2
 266 422 270 435 270 446 c 0
 270 459 253 470 211 470 c 1
 211 486 l 1
 642 486 l 1
 642 368 l 1
 626 368 l 1
 612 433 595.021484375 458 502 458 c 0
 448 458 412 458 412 438 c 2
 412 272 l 1
 506 272 l 2
 556 272 576 278 582 342 c 1
 598 342 l 1
 598 169 l 1
 582 169 l 1
 576 241 555 244 505 244 c 2
 412 244 l 1
 412 56 l 2
 412 36 412 28 489 28 c 2
 496 28 l 2
 639 28 639 74 674 133 c 1xb780
326 439 m 2
 326 445 326 454 321 454 c 0x3b80
 320.027860153 454 317.136752137 454 313 446 c 2
 313 446 192 212 192 212 c 1
 326 212 l 1
 326 439 l 2
EndSplineSet
EndChar

StartChar: eth.sc
Encoding: 69 -1 61
Width: 556
Flags: W
HStem: 0 23.9741<182.311 311.195> 0 16<20 69.8572> 234 36<22 94 180 320> 458 28<183.419 313.485> 470 16<20 63.5576>
VStem: 94 86<25.6353 234 270 455.741> 438 98<135.297 346.429>
LayerCount: 2
Fore
SplineSet
180 49 m 2xb6
 180 26.2396182412 189.766431928 23.9740670231 240.026424069 23.9740670231 c 0
 392.792925166 23.9740670231 438 137.038746022 438 256 c 0
 438 384 362 458 230 458 c 0
 202 458 180 458 180 427 c 2
 180 270 l 1
 320 270 l 1
 320 234 l 1
 180 234 l 1
 180 49 l 2xb6
20 0 m 1x66
 20 16 l 1
 77 18 94 29 94 71 c 2
 94 234 l 1
 22 234 l 1
 22 270 l 1
 94 270 l 1
 94 408 l 2
 94 446 76 469 20 470 c 1
 20 486 l 1x6e
 251 486 l 2
 402.373046875 486 536 412.536132812 536 243 c 0
 536 91.5634765625 437.700195312 -2.24967856192e-14 254 0 c 2xb6
 20 0 l 1x66
EndSplineSet
EndChar

StartChar: oslash.sc
Encoding: 70 -1 62
Width: 556
Flags: W
HStem: -8 28<203.954 338.367> 466 28<205.594 338.577>
VStem: 22 98<138.82 347.591> 424 98<140.156 346.904>
LayerCount: 2
Fore
SplineSet
272 466 m 0
 173 466 120 405 120 244 c 0
 120 175.026601529 129.774263841 123.255907418 149.495654137 86.9592915265 c 1
 373.12501618 427.485820092 l 1
 348.584491686 453.452927869 314.997397892 466 272 466 c 0
425.805867685 443.150528193 m 1
 483.191796998 399.653294634 522 329.852099759 522 240 c 0
 522 98 409 -8 272 -8 c 0
 227.447450542 -8 186.24183664 2.92676019706 150.668674839 22.2785665351 c 1
 74 -95 l 1
 30 -95 l 1
 120.015372024 42.068861945 l 1
 59.7740887483 87.7165430835 22 160.611870327 22 244 c 0
 22 386 130 494 272 494 c 0
 315.915742377 494 358.690305803 483.044682063 396.083129281 462.444765041 c 1
 470 575 l 1
 512 575 l 1
 425.805867685 443.150528193 l 1
172.548381159 55.7475236906 m 1
 197.031466831 31.4549132437 230.135913646 20 272 20 c 0
 369 20 424 84 424 238 c 0
 424 306.656478687 414.509044575 359.042748074 395.100906895 396.181752556 c 1
 172.548381159 55.7475236906 l 1
EndSplineSet
EndChar

StartChar: thorn.sc
Encoding: 71 -1 63
Width: 444
Flags: W
HStem: 0 16<16 66.2231 207.938 251> 115 28<177.268 283.749> 358 28<176 280.708> 470.13 15.87<14 65.9282 197.853 250>
VStem: 90 86<29.554 126 144.973 356.925 386 461.067> 334 102<181.779 318.898>
LayerCount: 2
Fore
SplineSet
176 346 m 2
 176 162 l 2
 176 149 187 143 232 143 c 0
 286 143 334 184 334 247 c 0
 334 311 301 358 215 358 c 0
 198 358 176 355 176 346 c 2
176 386 m 1
 242 386 l 2
 283 386 323 376 351 366 c 0
 412 344 436 298 436 245 c 0
 436 169 368 115 275 115 c 0
 243 115 215 116 176 126 c 1
 176 93 l 2
 176 38 196 16 252 16 c 1
 251 0 l 1
 16 0 l 1
 16 16 l 1
 87 16 90 38 90 93 c 2
 90 418 l 2
 90 459 71 468 14 470 c 1
 14 486 l 1
 250 486 l 1
 250 470 l 1
 247.210324264 470.086070207 244.509530411 470.129981293 241.895978649 470.129981293 c 0
 194.758517321 470.129981293 176 455.846162006 176 417 c 2
 176 386 l 1
EndSplineSet
EndChar

StartChar: uni0127.sc
Encoding: 72 -1 64
Width: 611
Flags: W
HStem: 0 16<24 72.2016 212.566 260 340 388.202 528.566 576> 233 36<186 416> 336 36<24 100 186 416 502 576> 470 16<24 71.3379 213.295 260 340 387.777 528.855 576>
VStem: 100 86<27 233 269 336 372 458.981> 416 86<27 233 269 336 372 458.981>
LayerCount: 2
Fore
SplineSet
186 269 m 1
 416 269 l 1
 416 336 l 1
 186 336 l 1
 186 269 l 1
502 336 m 1
 502 83 l 2
 502 21 531 18 576 16 c 1
 576 0 l 1
 340 0 l 1
 340 16 l 1
 385 18 416 21 416 83 c 2
 416 233 l 1
 186 233 l 1
 186 83 l 2
 186 21 215 18 260 16 c 1
 260 0 l 1
 24 0 l 1
 24 16 l 1
 69 18 100 21 100 83 c 2
 100 336 l 1
 24 336 l 1
 24 372 l 1
 100 372 l 1
 100 403 l 2
 100 457 77 469 24 470 c 1
 24 486 l 1
 260 486 l 1
 260 470 l 1
 207 469 186 457 186 403 c 2
 186 372 l 1
 416 372 l 1
 416 403 l 2
 416 457 394 469 340 470 c 1
 340 486 l 1
 576 486 l 1
 576 470 l 1
 522 469 502 457 502 403 c 2
 502 372 l 1
 576 372 l 1
 576 336 l 1
 502 336 l 1
EndSplineSet
EndChar

StartChar: uni0133.sc
Encoding: 73 -1 65
Width: 611
Flags: W
HStem: -8 24<340.446 406.764> 0 16<16 63.9075 203.503 252> 470 16<14 62.4968 202.092 250 342 388.971 534.693 578>
VStem: 90 86<27.0016 458.998> 286 71<17.5572 83.4553> 418 86<57.025 457.2>
LayerCount: 2
Fore
SplineSet
418 108 m 0
 418 206 418 304 418 402 c 0
 418 448 401 470 342 470 c 1
 342 486 l 1
 578 486 l 1
 578 470 l 1
 519 469 504 444 504 402 c 0
 504 325.666666667 504 249.333333333 504 173 c 0
 504 115 500 95 486 64 c 0
 463 13 418 -8 363 -8 c 0
 314 -8 286 12 286 51 c 0
 286 73 304 87 325 87 c 0
 343 87 350.239257812 77.1533203125 357 57 c 0
 364.098632812 35.8408203125 366 16 385 16 c 0
 397 16 409 25 413 41 c 0
 416 51 418 56 418 108 c 0
252 0 m 1
 16 0 l 1
 16 16 l 1
 75 17 90 33 90 87 c 2
 90 399 l 2
 90 453 73 470 14 470 c 1
 14 486 l 1
 250 486 l 1
 250 470 l 1
 191 469 176 453 176 399 c 2
 176 87 l 2
 176 33 193 17 252 16 c 1
 252 0 l 1
EndSplineSet
EndChar

StartChar: oe.sc
Encoding: 74 -1 66
Width: 768
Flags: W
HStem: -8 28<206.721 313.121> 0 28<435.714 604.366> 244 28<430 564.618> 459 28<434.061 594.115> 466 28<210.244 369.458>
VStem: 22 98<129.094 353.981> 340 90<38.0879 244 272 451.534> 592 14<167 203.078 314.798 343> 636 20<370 413.972>
LayerCount: 2
Fore
SplineSet
261 494 m 0
 274.391774749 494 392.035377072 487.348231146 423 487 c 2
 649 487 l 1
 656 370 l 1
 636 370 l 1
 634 427 608 459 517 459 c 2
 477 459 l 2
 436 459 430 446 430 427 c 2
 430 272 l 1
 503 272 l 2
 561.934570312 272 583 279 590 343 c 1
 606 343 l 1
 606 167 l 1
 592 167 l 1
 586 224 576.28515625 244 476 244 c 2
 430 244 l 1
 430 68 l 2
 430 38 441.508789062 28 472 28 c 2
 476 28 l 2
 631 28 651 55 679 132 c 1
 698 132 l 1
 666 0 l 1
 377 0 l 2
 327.357706019 0 299.498993645 -8 246 -8 c 0
 126.40625 -8 22 82.6398585314 22 243 c 0
 22 408.546629877 137.783203125 494 261 494 c 0
340 137 m 2
 340 385 l 2
 340 413 340 426 328 442 c 0
 314 460 290 466 261 466 c 0
 212 466 166.941371895 427.589758157 148 385 c 0
 128.212092698 340.506803249 120 298 120 240 c 0
 120 102 173 20 263 20 c 0
 303 20 323 34 333 62 c 0
 338 76 340 84 340 137 c 2
EndSplineSet
EndChar

StartChar: uni0167.sc
Encoding: 75 -1 67
Width: 500
Flags: W
HStem: 0 16<130 178.001 315.921 366> 253 36<61 204 290 433> 458 28<76.9884 204 290 417.012>
VStem: 26 17<368 403.558> 204 86<26.4821 253 289 458> 451 17<368 403.558>
LayerCount: 2
Fore
SplineSet
290 253 m 1
 290 104 l 2
 290 32 300 17 366 16 c 1
 366 0 l 1
 130 0 l 1
 130 16 l 1
 196 17 204 33 204 105 c 2
 204 253 l 1
 61 253 l 1
 61 289 l 1
 204 289 l 1
 204 458 l 1
 145 458 l 2
 68 458 55 435 43 368 c 1
 26 368 l 1
 35 486 l 1
 459 486 l 1
 468 368 l 1
 451 368 l 1
 439 435 426 458 349 458 c 2
 290 458 l 1
 290 289 l 1
 433 289 l 1
 433 253 l 1
 290 253 l 1
EndSplineSet
EndChar

StartChar: uni203C.sc
Encoding: 76 -1 68
Width: 456
Flags: W
HStem: -13 107<90.6089 175.391 276.609 361.391>
VStem: 80 106<-2.25699 83.324 284.156 486.152> 125 17<147 184.605> 266 106<-2.25699 83.324 284.156 486.152> 311 17<147 184.605>
LayerCount: 2
Fore
SplineSet
311 147 m 1
 271 382 l 2
 267 404 266 412 266 425 c 0
 266 470 288 500 321 500 c 0
 355 500 376 472 376 428 c 0
 376 413 374 396 371 378 c 2
 328 147 l 1
 311 147 l 1
319 94 m 0
 348 94 372 70 372 40 c 0
 372 11 348 -13 320 -13 c 0
 289 -13 266 11 266 42 c 0
 266 70 290 94 319 94 c 0
125 147 m 1
 85 382 l 2
 81 404 80 412 80 425 c 0
 80 470 102 500 135 500 c 0
 169 500 190 472 190 428 c 0
 190 413 188 396 185 378 c 2
 142 147 l 1
 125 147 l 1
133 94 m 0
 162 94 186 70 186 40 c 0
 186 11 162 -13 134 -13 c 0
 103 -13 80 11 80 42 c 0
 80 70 104 94 133 94 c 0
EndSplineSet
EndChar

StartChar: uni2047.sc
Encoding: 77 -1 69
Width: 798
Flags: W
HStem: -13 107<154.609 239.391 553.609 638.391> 470 30<128.374 224.071 527.374 623.071>
VStem: 40 62<337.28 436.635> 144 106<-2.25699 83.324> 187 19<146 199.682> 270 89<316.712 430.166> 439 62<337.28 436.635> 543 106<-2.25699 83.324> 586 19<146 199.682> 669 89<316.712 430.166>
LayerCount: 2
Fore
SplineSet
605 146 m 1
 587 146 l 1
 586 156 586 161 586 164 c 0
 586 195 596 220 620 252 c 0
 664 308 669 319 669 357 c 0
 669 421 629 470 577 470 c 0
 539 470 501 444 501 417 c 0
 501 407 501 407 519 368 c 0
 523 360 525 352 525 343 c 0
 525 323 508 305 487 305 c 0
 461 305 439 336 439 373 c 0
 439 444 510 500 603 500 c 0
 689 500 758 446 758 377 c 0
 758 336 736 305 676 262 c 0
 617 219 604 196 605 146 c 1
596 94 m 0
 625 94 649 70 649 40 c 0
 649 11 625 -13 597 -13 c 0
 566 -13 543 11 543 42 c 0
 543 70 567 94 596 94 c 0
206 146 m 1
 188 146 l 1
 187 156 187 161 187 164 c 0
 187 195 197 220 221 252 c 0
 265 308 270 319 270 357 c 0
 270 421 230 470 178 470 c 0
 140 470 102 444 102 417 c 0
 102 407 102 407 120 368 c 0
 124 360 126 352 126 343 c 0
 126 323 109 305 88 305 c 0
 62 305 40 336 40 373 c 0
 40 444 111 500 204 500 c 0
 290 500 359 446 359 377 c 0
 359 336 337 305 277 262 c 0
 218 219 205 196 206 146 c 1
197 94 m 0
 226 94 250 70 250 40 c 0
 250 11 226 -13 198 -13 c 0
 167 -13 144 11 144 42 c 0
 144 70 168 94 197 94 c 0
EndSplineSet
EndChar

StartChar: Euro.sc
Encoding: 78 -1 70
Width: 545
Flags: W
HStem: -8 28<257.088 384.769> 182 42<36 63.2256 165.135 400> 266 42<36 64.1992 167.439 436> 466 28<262.121 393.886>
VStem: 63 98<224 265.558> 67.292 97.8428<113.995 182 238.441 266 308 358.943>
LayerCount: 2
Fore
SplineSet
493 486 m 1
 511 336 l 1
 495 336 l 1
 469 413 408 466 326 466 c 0
 235.442382812 466 184.418945312 396.116210938 167.439453125 308 c 1
 454 308 l 1
 436 266 l 1
 161.984375 266 l 1
 161.326171875 256.751953125 161 247.401367188 161 238 c 0
 161 233.317382812 161.08203125 228.6484375 161.248046875 224 c 1
 418 224 l 1
 400 182 l 1
 165.134765625 182 l 1
 178.802734375 92.5830078125 226.700195312 20 314 20 c 0
 391 20 451 56 506 134 c 1
 522 124 l 1
 473 39 396 -8 302 -8 c 0
 162.03125 -8 85.515625 70.3828125 67.2919921875 182 c 1
 18 182 l 1
 36 224 l 1
 63.2255859375 224 l 1
 63.0751953125 228.297851562 63 232.631835938 63 237 c 0
 63 246.901367188 63.404296875 256.571289062 64.19921875 266 c 1
 18 266 l 1
 36 308 l 1
 70.6318359375 308 l 1
 96.984375 424.086914062 189.30859375 494 312 494 c 0
 353 494 373 491 409 477 c 0
 417.3359375 473.7578125 438 464 448 464 c 0
 458 464 464 469 476 486 c 1
 493 486 l 1
EndSplineSet
EndChar

StartChar: uni214B.sc
Encoding: 79 -1 71
Width: 575
Flags: W
HStem: 450 48<399 411> 438 60<120 128> -11 27<300.5 332>
VStem: 474 77<352.5 380> 366 68<75 98.5> 220 45<59 99>
LayerCount: 2
Fore
SplineSet
65 170 m 1
 65 188 l 1
 105 190 124 207 158 276 c 0
 179 317 190 336 219 373 c 1
 179 418 146 438 110 438 c 0
 82 438 60 418 54 387 c 1
 40 397 l 1
 53 461 93 498 147 498 c 0
 188 498 220 480 270 429 c 1
 321 477 370 498 428 498 c 0
 499 498 551 450 551 385 c 0
 551 320 506 266 408 213 c 1
 426 175 434 143 434 109 c 0
 434 41 383 -11 316 -11 c 0
 262 -11 220 26 220 74 c 0
 220 127 254 167 328 202 c 1
 316 230 275 296 238 349 c 1
 206 313 183 260 183 225 c 0
 183 203 195 190 216 188 c 1
 216 170 l 1
 65 170 l 1
341 177 m 1
 288 150 265 120 265 78 c 0
 265 40 285 16 316 16 c 0
 348 16 366 40 366 82 c 0
 366 115 359 143 341 177 c 1
290 407 m 1
 316 380 366 300 396 241 c 1
 445 265 474 307 474 354 c 0
 474 406 434 450 388 450 c 0
 355 450 317 433 290 407 c 1
EndSplineSet
EndChar

StartChar: u.sc
Encoding: 60 -1 72
Width: 611
Flags: W
HStem: -8 36<236.709 392.94> 470 16<21 65.3147 213.434 262 394 427.459 545.673 581>
VStem: 98 86<75.8893 456.726> 468 36<103.19 448.993>
LayerCount: 2
Fore
SplineSet
394 486 m 1
 581 486 l 1
 581 470 l 1
 511 460 504 439 504 374 c 2
 504 195 l 2
 504 129 492 86 461 52 c 0
 431.934723995 20.1219553493 392 -8 307 -8 c 0
 224 -8 154 14 121 69 c 0
 103 99 98 120 98 180 c 2
 98 389 l 2
 98 459 77 465 21 470 c 1
 21 486 l 1
 262 486 l 1
 262 470 l 1
 197 469 184 448 184 403 c 2
 184 177 l 2
 184 120 186 112 197 90 c 0
 219 46 255 28 313 28 c 0
 383 28 433.495995484 60.7903891621 454 110 c 0
 464 134 468 137 468 216 c 2
 468 374 l 2
 468 439 460 460 394 470 c 1
 394 486 l 1
EndSplineSet
EndChar

StartChar: v.sc
Encoding: 61 -1 73
Width: 556
Flags: W
HStem: -13 20
LayerCount: 2
Fore
SplineSet
26 486 m 1
 222 486 l 1
 222 470 l 1
 195 470 178 468 178 451 c 0
 178 431 179.778212663 427.329355921 196 389 c 2
 309 122 l 1
 414 393 l 2
 425.619973911 421.74941821 428 436 428 447 c 0
 428 464 414 470 382 470 c 1
 382 486 l 1
 524 486 l 1
 524 470 l 1
 487 466 476.981996502 456.405336295 460 414 c 2
 294 -8 l 1
 278 -8 l 1
 105 386 l 2
 68.3763022169 469.408883968 46 470 26 470 c 1
 26 486 l 1
EndSplineSet
EndChar

StartChar: w.sc
Encoding: 62 -1 74
Width: 778
Flags: W
HStem: -8 21G<226.951 258.055 504.857 532.512> 470.121 15.8793<0 28.4009 152.366 192 264 304.289 431.727 475 620 657.808 735.189 770>
LayerCount: 2
Fore
SplineSet
0 486 m 1
 192 486 l 1
 192 470 l 1
 189.70447027 470.079156198 187.484128983 470.120718173 185.341455986 470.120718173 c 0
 160.415206243 470.120718173 146 464.496032246 146 447 c 0
 146 438 148.878994114 422.547445772 160 395 c 2
 269 125 l 1
 369 345 l 1
 343 407 l 1
 326 455 309 469 264 470 c 1
 264 486 l 1
 475 486 l 1
 475 470 l 1
 443 470 422 465 422 444 c 0
 422 434 430 407 438 388 c 2
 544 128 l 1
 655 393 l 2
 663.229593197 412.647227001 668 432 668 443 c 0
 668 462 651 470 620 470 c 1
 620 486 l 1
 770 486 l 1
 770 473 l 1
 736 469 722.271716982 457.884362308 707 422 c 2
 524 -8 l 1
 513 -8 l 1
 388 299 l 1
 249 -8 l 1
 235 -8 l 1
 70 402 l 1
 49 457 37 463 0 470 c 1
 0 486 l 1
EndSplineSet
EndChar

StartChar: x.sc
Encoding: 63 -1 75
Width: 556
Flags: W
HStem: 0 20 469 18<8 31 218.5 232 232 238 362 378.5>
LayerCount: 2
Fore
SplineSet
292 302 m 1
 372 417 l 2
 380.744140625 429.569335938 386 442 386 450 c 0
 386 459 373 470 340 470 c 1
 340 486 l 1
 512 486 l 1
 512 470 l 1
 465 467 438.03515625 445.166015625 377 365 c 2
 310 277 l 1
 415 121 l 2
 474.159179688 33.1064453125 483 17 526 16 c 1
 526 0 l 1
 312 0 l 1
 312 16 l 1
 344 16 360 18 360 34 c 0
 360 51 354.750976562 59.5029296875 335 89 c 2
 258 204 l 1
 171 86 l 2
 159.893554688 70.80859375 144 51 144 35 c 0
 144 23 155 16 190 16 c 1
 190 0 l 1
 26 0 l 1
 26 16 l 1
 71 17 81.4501953125 27.0029296875 130 91 c 2
 240 233 l 1
 133 388 l 2
 101.274414062 433.494140625 81 469 34 470 c 1
 34 486 l 1
 250 486 l 1
 250 470 l 1
 244 470 l 2
 217 470 204 465 204 449 c 0
 204 441 209 424 219 411 c 2
 292 302 l 1
EndSplineSet
EndChar

StartChar: y.sc
Encoding: 64 -1 76
Width: 556
Flags: W
HStem: 0 16<155 208.149 340.783 394> 470 16<24 58.5665 193.379 244 378 415.885 493.092 528>
VStem: 232 86<25.2866 208>
LayerCount: 2
Fore
SplineSet
318 214 m 1
 318 74 l 2
 318 31 334 15 394 16 c 1
 394 0 l 1
 155 0 l 1
 155 16 l 1
 214 15 232 31 232 74 c 2
 232 208 l 1
 83 441 l 2
 77.5898030482 449.460240871 61 469 24 470 c 1
 24 486 l 1
 244 486 l 1
 244 470 l 1
 219 470 l 2
 210.006835938 469.947265625 188 469.198336977 188 447 c 0
 188 438 196 418 208 401 c 1
 304 247 l 1
 401 399 l 2
 419.359979085 427.770276505 422 438 422 449 c 0
 422 459 416 470 378 470 c 1
 378 486 l 1
 528 486 l 1
 528 470 l 1
 488 470 478.074185482 452.278367702 449 409 c 2
 318 214 l 1
EndSplineSet
EndChar

StartChar: z.sc
Encoding: 65 -1 77
Width: 556
Flags: W
HStem: 0 32<157 448.172> 454 32<127.149 369>
VStem: 66 18<356 386.488>
LayerCount: 2
Fore
SplineSet
86 486 m 1
 491 486 l 1
 491 474 l 0
 157 32 l 1
 369 32 l 2
 449 32 476 53 505 139 c 1
 522 139 l 1
 494 0 l 1
 24 0 l 1
 369 454 l 1
 191 454 l 2
 133.002054916 453.654774136 101 437 84 356 c 1
 66 356 l 1
 86 486 l 1
EndSplineSet
EndChar

StartChar: exclamdown.sc
Encoding: 66 -1 78
Width: 270
Flags: W
HStem: -13 20 393 107<122.5 151.5>
VStem: 84 106<432 460.5>
LayerCount: 2
Fore
SplineSet
146 340 m 1
 186 105 l 2
 189 87 190 74 190 61 c 0
 190 17 168 -13 135 -13 c 0
 101 -13 80 15 80 59 c 0
 80 73 82 89 85 109 c 2
 129 340 l 1
 146 340 l 1
136 500 m 0
 167 500 190 476 190 445 c 0
 190 417 166 393 137 393 c 0
 108 393 84 417 84 447 c 0
 84 476 108 500 136 500 c 0
EndSplineSet
EndChar

StartChar: questiondown.sc
Encoding: 67 -1 79
Width: 399
Flags: W
HStem: -13 30<195 240 195 241.5> 393 107<186.5 215.5>
VStem: 40 89<98 130> 148 106<432 460.5 431 461.5> 297 62<56.5 132>
LayerCount: 2
Fore
SplineSet
193 340 m 1
 211 340 l 1
 211 322 l 2
 211 291 202 267 177 235 c 0
 134 179 129 167 129 130 c 0
 129 66 169 17 221 17 c 0
 259 17 297 43 297 70 c 0
 297 80 297 80 279 118 c 0
 275 126 273 135 273 143 c 0
 273 163 290 181 311 181 c 0
 337 181 359 150 359 114 c 0
 359 42 288 -13 195 -13 c 0
 109 -13 40 41 40 110 c 0
 40 150 63 182 122 225 c 0
 180 268 194 290 193 340 c 1
200 500 m 0
 231 500 254 476 254 445 c 0
 254 417 230 393 201 393 c 0
 172 393 148 417 148 447 c 0
 148 476 172 500 200 500 c 0
EndSplineSet
EndChar

StartChar: seven.onum.ss11
Encoding: 81 -1 80
Width: 500
Flags: W
HStem: 366 128<81.1897 348>
VStem: 24 24<277 310.022>
LayerCount: 2
Fore
SplineSet
70 494 m 1
 476 494 l 1
 238 -174 l 1
 150 -174 l 1
 348 366 l 1
 130 366 l 2
 85 366 58 323 48 277 c 1
 24 277 l 1
 70 494 l 1
EndSplineSet
EndChar

StartChar: eight.onum.ss11
Encoding: 82 -1 81
Width: 500
Flags: W
HStem: -12 32<192.002 298.474> 658 32<199.953 290.564>
VStem: 26 118<66.1033 232.362> 36 130<505.535 593.793> 332 138<96.7611 198.452> 336 118<462.933 609.212>
LayerCount: 2
Fore
SplineSet
201 301 m 1xe8
 177 277 144 215 144 158 c 0
 144 74 177 20 246 20 c 0
 309 20 332 62 332 124 c 0
 332 210.765280021 250.954312359 269.697125094 201 301 c 1xe8
336 542 m 0xd4
 336 613 296 658 244 658 c 0
 193 658 166 615 166 567 c 0
 166 506 213 467 296 418 c 1
 315 435 336 485 336 542 c 0xd4
470 194 m 0xc8
 470 83 402 -12 242 -12 c 0
 101 -12 26 42 26 152 c 0xe8
 26 197 40 274 172 319 c 1
 124 344 36 403 36 524 c 0
 36 612 134 690 257 690 c 0
 374 690 454 621 454 543 c 0xd4
 454 468 422 429 323 398 c 1
 358 364 470 317 470 194 c 0xc8
EndSplineSet
EndChar

StartChar: nine.onum.ss11
Encoding: 83 -1 82
Width: 500
Flags: W
HStem: -190 24<26 67.6682> 74 44<149 291.716> 474 32<195.526 270.035>
VStem: 22 150<172.618 382.709> 314 150<128.302 350.78>
LayerCount: 2
Fore
SplineSet
314 267 m 0
 314 400 289 474 235 474 c 0
 172.124558755 474 172 402.96875 172 302 c 0
 172 183 195 118 258 118 c 0
 307.02734375 118 314 140.640625 314 267 c 0
26 -190 m 1
 26 -166 l 1
 167 -139 243 -73 292 93 c 1
 292 93 250 74 203 74 c 0
 95 74 22 149.004868135 22 279 c 0
 22 416 118 506 240 506 c 0
 395.264648438 506 464 369.513342602 464 215 c 0
 464 -23.908203125 249 -178 26 -190 c 1
EndSplineSet
EndChar

StartChar: six.onum.ss11
Encoding: 80 -1 83
Width: 500
Flags: W
HStem: -12 32<220.417 291.34> 382 44<198.685 336> 666 24<426.612 464>
VStem: 26 150<137.427 370.621> 318 150<117.013 321.588>
LayerCount: 2
Fore
SplineSet
318 156 m 0
 318 317 293 382 228 382 c 0
 176 382 176 334 176 232 c 0
 176 110 196 20 256 20 c 0
 288 20 318 41 318 156 c 0
464 690 m 1
 464 666 l 1
 296 627 239 541 198 407 c 1
 198 407 243 426 286 426 c 0
 386 426 468 353 468 216 c 0
 468 89.470703125 377.919921875 -12 250 -12 c 0
 99.28515625 -12 26 112.111328125 26 277 c 0
 26 534.595703125 252 681 464 690 c 1
EndSplineSet
EndChar
